<?xml version="1.0" encoding="utf-8"?>
<!-- Generator: Adobe Illustrator 18.0.0, SVG Export Plug-In . SVG Version: 6.00 Build 0)  -->
<!DOCTYPE svg PUBLIC "-//W3C//DTD SVG 1.1//EN" "http://www.w3.org/Graphics/SVG/1.1/DTD/svg11.dtd">
<svg version="1.1" id="Layer_2" xmlns="http://www.w3.org/2000/svg" xmlns:xlink="http://www.w3.org/1999/xlink" x="0px" y="0px"
	 viewBox="0 0 720 720" enable-background="new 0 0 720 720" xml:space="preserve">
<g>
	<path d="M217.1,707.4h-10.5V580.7h-6.9v49.8l-93.4-115.4v113.6H95.7v-48H31V12H689v568.7H217.1V707.4z M95.7,485.7l93.4,115.4
		V487.4h10.5v83.1h6.9v-88.2H293v10.5h-76v77.7h461.3V22.6H41.5v547.9h54.1V485.7z"/>
</g>
<g>
	<path d="M132.5,86.6c0,1-0.2,1.9-0.2,2.9c0,5,0.2,10.2,0.2,15.2c0,3.6-0.6,4.2-4.7,3.4c0-0.8-0.2-1.8-0.2-2.7c0-15,0-30.2,0-45.3
		c0-1.1-0.6-2.7,1.6-2.9c1.9-0.2,3.1,0.5,3.4,2.6c1.1,6.9,2.3,13.9,3.6,20.8c0,0.5,0.2,0.8,0.8,1.1c0-4.4,0-8.7,0-13.1
		c0-2.9-0.2-6-0.2-8.9c0-1.8,0.6-2.7,2.6-2.7c1.9,0,2.3,1,2.3,2.6c0,15.4,0,30.7,0,46.1c0,1.3,0.2,2.6-1.8,2.6
		c-1.6,0-2.7-0.2-3.2-2.1c-1.1-6.6-2.4-13.1-3.7-19.7C132.8,86.6,132.7,86.6,132.5,86.6z"/>
	<path d="M404.8,85.8c0,1-0.2,1.9-0.2,2.9c0,5.7,0.2,11.2,0.2,16.8c0,1.6-0.3,2.9-2.4,3.1c-1.8,0-2.4-0.5-2.4-2.4
		c0-15.5,0-31,0.2-46.5c0-0.8,0.8-1.9,1.5-2.3c1.3-0.3,2.9-0.3,3.4,1.6c0.3,1.5,0.5,2.9,0.8,4.4c1,6.3,2.1,12.4,3.6,18.7
		c0.2-1.1,0.3-2.4,0.2-3.6c0-6.1-0.2-12.1-0.2-18.3c0-1.9,0.6-2.9,2.7-2.9c1.6,0,2.3,0.5,2.3,2.1c0,15.7,0,31.2,0,46.9
		c0,1.1,0,2.3-1.6,2.3c-1.5,0-2.7-0.2-3.1-1.9c-0.5-3.1-1.1-6.1-1.6-9.2c-0.6-3.9-1.5-7.6-2.3-11.5C405.2,85.8,405,85.8,404.8,85.8z
		"/>
	<path d="M221.7,82.7c0-7.6,0-15.2,0-22.8c0-1.3-0.5-2.9,1.9-2.9c2.1,0,2.9,1,2.9,3.1c0,5.7,0,11.3,0,17c0,1.5-0.2,3.1,2.1,2.9
		c2.3,0,2.1-1.6,2.1-3.1c0-5.7,0-11.3,0-17c0-1.6,0.5-2.9,2.4-2.9c1.8,0,2.4,0.6,2.4,2.4c0,15.4,0,30.7,0,46.1c0,1.5,0,2.7-2.1,2.7
		s-2.7-1.1-2.7-2.9c0-4.8,0-9.7,0-14.7c0-1.3,0-2.6,0-3.9c0.2-1.6-0.3-2.6-2.3-2.6s-1.9,1.1-1.9,2.6c0,6.1,0,12.1,0,18.3
		c0,1.5-0.2,2.9-1.9,3.2c-1.8,0.3-2.9,0.2-2.9-2.3C221.9,98.3,221.7,90.5,221.7,82.7z"/>
	<path d="M174.9,82.6c0-6.5,0-12.9,0-19.4c0-4,2.9-6.9,6.8-6.9c4,0,7.1,2.7,7.3,6.8c0.2,4.8,0,9.7,0,14.7c0,1.6-0.5,2.4-2.3,2.4
		c-1.6,0-2.6-0.6-2.6-2.4c0-4.4,0-8.7,0-13.1c0-1.8-0.2-3.7-2.4-3.6c-2.1,0.2-1.9,2.1-1.9,3.6c0,12.1,0,24.2,0,36.4
		c0,0.5-0.2,1,0,1.3c0.6,1,1.3,1.6,2.1,2.6c0.8-0.8,2.1-1.8,2.1-2.6c0.2-4.4,0.2-8.7,0-13.1c0-2.1,0.6-3.1,2.7-3.1
		c2.3,0,2.1,1.5,2.1,3.1c0,4.4,0,8.9,0,13.3c0,4.5-2.6,6.8-7.1,6.8c-4,0-7.3-2.7-7.1-6.9C175,95.7,174.9,89.1,174.9,82.6z"/>
	<path d="M311.8,97.6c0-1.5,0-2.9,0-4.4c0-1.3,0-2.7,1.9-2.7s3.1,0.8,3.2,2.7c0.2,2.1,0,4.2,0,6.3c0,1-0.2,2.3,0.2,3.1
		c0.3,0.8,1.3,1.5,1.9,2.3c0.6-0.8,1.9-1.6,1.9-2.3c-0.5-4.7-1-9.5-2.3-14.1c-1.5-5.3-4-10.3-5.7-15.7c-1-3.4-1.1-7.1-1-10.5
		c0-3.4,3.6-6,7.1-6s6.5,2.4,6.8,5.8c0.2,3.4,0.2,6.9,0.2,10.5c0,1.3-0.2,2.4-1.9,2.4s-2.9-0.6-2.9-2.4c0-2.4,0-4.8,0-7.3
		c0-0.6,0.2-1.5,0-2.1c-0.5-0.8-1.3-1.5-2.1-2.3c-0.6,0.8-1.8,1.5-1.8,2.3c-0.3,5.7,1,11,3.2,16.2c3.2,7.1,5.7,14.4,5.5,22.3
		c0,3.6-1,5.7-3.6,6.6c-3.1,1.3-7.1,0.8-8.9-1.5c-1-1.1-1.3-2.7-1.6-4.2C311.6,101,311.8,99.4,311.8,97.6z"/>
	<path d="M579.9,80.8c1.5,0,2.4-0.2,3.4,0c0.8,0.2,1.9,1.3,1.9,1.6c-0.2,0.8-1.1,2.3-1.8,2.3c-3.6-0.3-3.7,1.6-3.6,4.4
		c0.2,4.2,0.2,8.4,0,12.6c0,1.9,0.6,2.7,2.6,2.6c0.8,0,1.9,0,2.6,0.3c0.6,0.5,1.1,1.5,1.1,2.3c0,0.5-1.1,1.3-1.8,1.3
		c-2.4,0.2-4.8,0-7.3,0.2c-1.6,0-2.3-0.6-2.1-2.1c0-2.1,0-4.4,0-6.5c0-13.1,0-26.2,0-39.3c0-2.6,0.6-3.7,3.4-3.4
		c1.9,0.2,3.9-0.2,5.8,0.2c0.8,0.2,1.6,1,2.3,1.5c-0.6,0.8-1.3,2.1-2.1,2.4c-1.1,0.6-3.4,0.2-3.7,0.8c-0.6,1.3-0.5,3.2-0.5,4.8
		C579.9,71.4,579.9,76,579.9,80.8z"/>
	<path d="M273.8,80.8c1.3,0,2.4-0.2,3.4,0c0.8,0.2,1.9,0.8,2.1,1.5c0.5,1.3-0.3,2.3-1.8,2.6c-3.7,0.8-3.7,0.8-3.7,4.5
		c0,4,0,8.2,0,12.3c0,1.9,0.6,2.7,2.6,2.6c0.8,0,1.8-0.2,2.3,0.3c0.6,0.5,1.3,1.6,1.3,2.4c0,0.3-1.1,1.3-1.8,1.3
		c-2.3,0.2-4.5,0-6.8,0.2c-2.1,0.2-2.7-0.6-2.7-2.6c0.2-3.2,0-6.5,0-9.7c0-11.8,0-23.8,0-35.6c0-3.4,0-3.4,3.6-3.4
		c1.9,0,3.9-0.2,5.8,0.2c0.8,0.2,2.1,1.3,1.9,1.6c-0.3,1-1.1,1.6-1.8,2.4c0,0-0.2,0-0.3,0c-4,0.6-4,0.6-4,4.8
		C273.8,70.9,273.8,75.8,273.8,80.8z"/>
	<path d="M536.7,80.8c1.3,0,2.4-0.2,3.4,0c0.8,0.2,1.5,1,2.3,1.5c-0.6,0.8-1.1,2.3-1.9,2.6c-3.6,1-3.7,0.8-3.7,4.7
		c0,3.7,0.2,7.4,0,11.2c-0.2,2.4,0.5,3.9,3.2,3.6c0.6,0,1.5,0,1.8,0.3c0.6,0.6,1.1,1.6,1.3,2.4c0,0.3-1.1,1.3-1.8,1.3
		c-2.9,0.2-5.8,0-9.2,0c-0.2-1-0.2-1.8-0.2-2.6c0-15.4,0-30.7,0-45.9c0-2.1,0.6-2.7,2.6-2.6c2.1,0.2,4.4,0,6.5,0.2
		c0.6,0,2.1,1,1.9,1.3c-0.2,1-1,1.8-1.5,2.6c0,0.2-0.3,0.2-0.5,0.2c-1.3,0.2-3.2,0-3.6,0.6c-0.6,1.1-0.5,2.9-0.5,4.5
		C536.7,71.1,536.7,75.8,536.7,80.8z"/>
	<path d="M488.7,83.1c0-7.6,0-15.4,0-22.9c0-2.1,0.5-3.1,2.7-2.9c2.1,0.2,4.4-0.2,6.5,0.2c0.8,0,2.1,1.1,1.9,1.5
		c-0.2,1-1,1.9-1.6,2.4c-1.3,0.6-3.6,0.2-4,1c-0.8,1.3-0.5,3.2-0.5,4.8c0,3.7,0.2,7.3,0,11c-0.2,2.6,1,3.1,3.2,2.9
		c2.1-0.2,3.1,1.1,2.3,2.7c-0.3,0.6-1.5,1.3-2.3,1.3c-2.7-0.3-3.2,1.1-3.1,3.6c0.2,5.5,0.2,11.2,0,16.6c0,1.1-0.8,2.7-1.6,3.1
		c-2.1,1.1-3.4,0-3.4-2.4C488.7,98.3,488.7,90.7,488.7,83.1z"/>
	<path d="M621.4,84.8c0-6.8,0-13.6,0-20.4c0-1.8-0.3-2.9-2.4-3.2c-0.8-0.2-1.5-1.6-2.1-2.4c0.8-0.5,1.6-1.5,2.4-1.6
		c2.9-0.2,5.8-0.2,8.6,0c0.8,0,1.6,0.8,2.3,1.3c-0.6,1-1.1,2.4-1.8,2.6c-2.1,0.3-2.3,1.5-2.3,3.1c0,13.6,0,27.2,0,40.7
		c0,1.1-0.5,2.7-1.3,3.2c-1.9,1.1-3.4,0-3.4-2.6C621.4,98.7,621.4,91.8,621.4,84.8z"/>
	<path d="M94.7,82.7c0,7.6,0,15.2,0,22.8c0,1.3,0.2,2.7-1.8,2.9c-1.9,0.3-3.1-0.3-3.1-2.6c0.2-5.2,0-10.3,0-15.4c0-10,0-20,0-30.1
		c0-1.3-0.2-2.6,1.6-3.1c2.3-0.5,3.1,0.2,3.1,2.4C94.7,67.4,94.7,75,94.7,82.7z"/>
</g>
</svg>
