<?xml version="1.0" encoding="utf-8"?>
<!-- Generator: Adobe Illustrator 18.0.0, SVG Export Plug-In . SVG Version: 6.00 Build 0)  -->
<!DOCTYPE svg PUBLIC "-//W3C//DTD SVG 1.1//EN" "http://www.w3.org/Graphics/SVG/1.1/DTD/svg11.dtd">
<svg version="1.1" id="baba1a6e-b9a0-45cd-92f7-13efe2c0b468"
	 xmlns="http://www.w3.org/2000/svg" xmlns:xlink="http://www.w3.org/1999/xlink" x="0px" y="0px" viewBox="424 0 586 576"
	 enable-background="new 424 0 586 576" xml:space="preserve">
<title>segment_analysis</title>
<path fill="#F2F2F2" d="M896.6,288.5H685.7L574.9,467.9c33.3,20.6,71.7,31.5,110.8,31.5C802.2,499.4,896.6,405,896.6,288.5z"/>
<path fill="#3F3D56" d="M678.6,479.8c-39.3,0-77.9-10.9-111.3-31.6l-0.8-0.5l0.5-0.8L678,267h212.4v1
	C890.4,384.8,795.4,479.8,678.6,479.8z M569.1,447c32.9,20.2,70.8,30.8,109.4,30.8c115.4,0,209.3-93.6,209.8-208.8H679.1L569.1,447z
	"/>
<path fill="#F2F2F2" d="M424,258.2c0,73.1,37.8,141,100,179.4l110.8-179.4L451.7,153.6C433.5,185.4,423.9,221.5,424,258.2z"/>
<path fill="#3F3D56" d="M541.3,431.7l-0.9-0.5c-97.1-60-129.2-186.2-72.6-285.3l0.5-0.9l184.8,105.6L541.3,431.7z M469.1,147.8
	c-55.2,97.8-23.7,221.7,71.5,281.2l109.8-177.6L469.1,147.8z"/>
<path fill="#2B2B2B" d="M739.7,20.1L694.2,226H905C905,125.2,834.3,40.9,739.7,20.1z"/>
<path fill="#3F3D56" d="M890.4,238.6H677.3l45.9-208.1l1,0.2c97,21.5,166.1,107.5,166.2,206.9V238.6z M679.8,236.6h208.6
	c-0.5-97-69.1-182.4-163.6-203.7L679.8,236.6z"/>
<path fill="#F2F2F2" d="M649.1,0C573.4,0,503.6,40.5,466,106.2l183.1,104.6L694.6,4.9C679.6,1.6,664.4,0,649.1,0z"/>
<path fill="#3F3D56" d="M658.7,229.3L473.6,123.6l0.5-0.9C520.2,42.2,613.2,1,703.7,20.9l1,0.2L658.7,229.3z M476.3,122.8l181,103.4
	l44.9-203.6C613.2,3.5,522,44,476.3,122.8z"/>
<polygon fill="#3F3D56" points="767.8,168.6 766.3,167.3 876,50.8 965.3,50.8 965.3,52.8 876.9,52.8 "/>
<rect x="904.6" y="66.1" fill="#2B2B2B" width="105.4" height="3.6"/>
<rect x="904.6" y="81.3" fill="#2B2B2B" width="105.4" height="3.6"/>
<rect x="904.6" y="96.5" fill="#2B2B2B" width="105.4" height="3.6"/>
<rect x="868.6" y="508.1" fill="#2B2B2B" width="105.4" height="3.6"/>
<rect x="868.6" y="523.3" fill="#2B2B2B" width="105.4" height="3.6"/>
<rect x="868.6" y="538.5" fill="#2B2B2B" width="105.4" height="3.6"/>
<polygon fill="#3F3D56" points="929,490.2 823.5,490.2 823.2,489.7 741.2,370.7 742.8,369.6 824.5,488.2 929,488.2 "/>
</svg>
